<?xml version="1.0" encoding="utf-8"?>
<svg id="master-artboard" xmlns="http://www.w3.org/2000/svg" viewBox="0 0 500 500" width="500px" height="500px"><defs><path d="M180.82764,252.605272 C184.843951,254.170159 189.42406,254.069552 193.478224,252.11917 L245.979142,226.856851 C251.495593,224.202221 255.003889,218.618034 255.003889,212.49296 L255.003889,41.1971845 C255.003889,35.0719113 251.495593,29.4886211 245.979142,26.8339907 L193.478224,1.57068551 C188.158006,-0.989256713 181.931329,-0.362230036 177.262566,3.0323459 C176.595173,3.51727166 175.959655,4.05869672 175.363982,4.65536598 L74.8565893,96.3498444 L31.0778002,63.1181557 C27.0024197,60.0246398 21.3020866,60.2780499 17.5170718,63.7211005 L3.47578059,76.4937075 C-1.15402423,80.7052561 -1.15933349,87.9889043 3.46431538,92.2072265 L41.430759,126.844525 L3.46431538,161.482221 C-1.15933349,165.700742 -1.15402423,172.984291 3.47578059,177.19584 L17.5170718,189.967949 C21.3020866,193.411497 27.0024197,193.664509 31.0778002,190.571591 L74.8565893,157.339404 L175.363982,249.034221 C176.953772,250.625007 178.82048,251.823326 180.82764,252.605272 Z M191.291764,68.9559518 L115.029663,126.844525 L191.291764,184.733396 L191.291764,68.9559518 Z" id="path-1"/><linearGradient x1="50.0000484%" y1="-3.91645412e-07%" x2="50.0000484%" y2="99.999921%" id="linearGradient-3">
            <stop stop-color="#FFFFFF" offset="0%"/>
            <stop stop-color="#FFFFFF" stop-opacity="0" offset="100%"/>
        </linearGradient><radialGradient id="radialGradient-1" cx="0.8366" cy="-125.811" r="363.0565" gradientTransform="matrix(0.463 0 0 0.463 76.4644 81.9182)" gradientUnits="userSpaceOnUse">
			<stop offset="0" style="stop-color:#FFFFFF"/>
			<stop offset="0.5" style="stop-color:#4C6B97"/>
			<stop offset="1" style="stop-color:#231F20"/>
		</radialGradient></defs><rect id="ee-background" x="0" y="0" width="500" height="500" style="fill: white; fill-opacity: 0; pointer-events: none;"/><g transform="matrix(1.9531248807907104, 0, 0, 1.9531248807907104, 0, 118.16405528783798)"><g>
		<path d="M 256 67.300003 A 128 67.300003 0 0 1 128 134.600006 A 128 67.300003 0 0 1 0 67.300003 A 128 67.300003 0 0 1 128 0 A 128 67.300003 0 0 1 256 67.300003 Z" fill="url(#radialGradient-1)"/>
		<path d="M 251 67.300003 A 123 62.299999 0 0 1 128 129.600002 A 123 62.299999 0 0 1 5 67.300003 A 123 62.299999 0 0 1 128 5.000004 A 123 62.299999 0 0 1 251 67.300003 Z" fill="#6181B6"/>
		<g>
			<path fill="#FFFFFF" d="M152.9,87.5c0,0,6.1-31.4,6.1-31.4c1.4-7.1,0.2-12.4-3.4-15.7c-3.5-3.2-9.5-4.8-18.3-4.8h-10.6l3-15.6&#10;&#9;&#9;&#9;&#9;c0.1-0.6,0-1.2-0.4-1.7c-0.4-0.5-0.9-0.7-1.5-0.7h-14.6c-1,0-1.8,0.7-2,1.6l-6.5,33.3c-0.6-3.8-2-7-4.4-9.6&#10;&#9;&#9;&#9;&#9;c-4.3-4.9-11-7.4-20.1-7.4H52.1c-1,0-1.8,0.7-2,1.6L37,104.7c-0.1,0.6,0,1.2,0.4,1.7c0.4,0.5,0.9,0.7,1.5,0.7h14.7&#10;&#9;&#9;&#9;&#9;c1,0,1.8-0.7,2-1.6l3.2-16.3h10.9c5.7,0,10.6-0.6,14.3-1.8c3.9-1.3,7.4-3.4,10.5-6.3c2.5-2.3,4.6-4.9,6.2-7.7l-2.6,13.5&#10;&#9;&#9;&#9;&#9;c-0.1,0.6,0,1.2,0.4,1.7s0.9,0.7,1.5,0.7h14.6c1,0,1.8-0.7,2-1.6l7.2-37h10c4.3,0,5.5,0.8,5.9,1.2c0.3,0.3,0.9,1.5,0.2,5.2&#10;&#9;&#9;&#9;&#9;l-5.8,29.9c-0.1,0.6,0,1.2,0.4,1.7c0.4,0.5,0.9,0.7,1.5,0.7H151C151.9,89.1,152.7,88.4,152.9,87.5z M85.3,61.5&#10;&#9;&#9;&#9;&#9;c-0.9,4.7-2.6,8.1-5.1,10c-2.5,1.9-6.6,2.9-12,2.9h-6.5l4.7-24.2h8.4c6.2,0,8.7,1.3,9.7,2.4C85.8,54.2,86.1,57.3,85.3,61.5z"/>
			<path fill="#FFFFFF" d="M215.3,42.9c-4.3-4.9-11-7.4-20.1-7.4h-28.3c-1,0-1.8,0.7-2,1.6l-13.1,67.5c-0.1,0.6,0,1.2,0.4,1.7&#10;&#9;&#9;&#9;&#9;c0.4,0.5,0.9,0.7,1.5,0.7h14.7c1,0,1.8-0.7,2-1.6l3.2-16.3h10.9c5.7,0,10.6-0.6,14.3-1.8c3.9-1.3,7.4-3.4,10.5-6.3&#10;&#9;&#9;&#9;&#9;c2.6-2.4,4.8-5.1,6.4-8c1.6-2.9,2.8-6.1,3.5-9.6C220.9,54.7,219.6,47.9,215.3,42.9z M200,61.5c-0.9,4.7-2.6,8.1-5.1,10&#10;&#9;&#9;&#9;&#9;c-2.5,1.9-6.6,2.9-12,2.9h-6.5l4.7-24.2h8.4c6.2,0,8.7,1.3,9.7,2.4C200.6,54.2,200.9,57.3,200,61.5z"/>
		</g>
		<g>
			<path fill="#000004" d="M74.8,48.2c5.6,0,9.3,1,11.2,3.1c1.9,2.1,2.3,5.6,1.3,10.6c-1,5.2-3,9-5.9,11.2c-2.9,2.2-7.3,3.3-13.2,3.3&#10;&#9;&#9;&#9;&#9;h-8.9l5.5-28.2H74.8z M39,105h14.7l3.5-17.9h12.6c5.6,0,10.1-0.6,13.7-1.8c3.6-1.2,6.8-3.1,9.8-5.9c2.5-2.3,4.5-4.8,6-7.5&#10;&#9;&#9;&#9;&#9;c1.5-2.7,2.6-5.7,3.2-9c1.6-8,0.4-14.2-3.5-18.7c-3.9-4.5-10.1-6.7-18.6-6.7H52.1L39,105z"/>
			<path fill="#000004" d="M113.3,19.6h14.6l-3.5,17.9h13c8.2,0,13.8,1.4,16.9,4.3c3.1,2.9,4,7.5,2.8,13.9L151,87.1h-14.8l5.8-29.9&#10;&#9;&#9;&#9;&#9;c0.7-3.4,0.4-5.7-0.7-6.9c-1.1-1.2-3.6-1.9-7.3-1.9h-11.7l-7.5,38.7h-14.6L113.3,19.6z"/>
			<path fill="#000004" d="M189.5,48.2c5.6,0,9.3,1,11.2,3.1c1.9,2.1,2.3,5.6,1.3,10.6c-1,5.2-3,9-5.9,11.2c-2.9,2.2-7.3,3.3-13.2,3.3&#10;&#9;&#9;&#9;&#9;h-8.9l5.5-28.2H189.5z M153.7,105h14.7l3.5-17.9h12.6c5.6,0,10.1-0.6,13.7-1.8c3.6-1.2,6.8-3.1,9.8-5.9c2.5-2.3,4.5-4.8,6-7.5&#10;&#9;&#9;&#9;&#9;c1.5-2.7,2.6-5.7,3.2-9c1.6-8,0.4-14.2-3.5-18.7c-3.9-4.5-10.1-6.7-18.6-6.7h-28.3L153.7,105z"/>
		</g>
	</g></g></svg>