<?xml version="1.0" encoding="utf-8"?>
<svg id="master-artboard" viewBox="0 0 200 200" version="1.1" xmlns="http://www.w3.org/2000/svg" x="0px" y="0px" style="enable-background:new 0 0 336 235.2;" width="200px" height="200px"><defs><linearGradient x1="12.9593594%" y1="12.0393928%" x2="79.6388325%" y2="78.2008538%" id="linearGradient-1">
            <stop stop-color="#387EB8" offset="0%"/>
            <stop stop-color="#366994" offset="100%"/>
        </linearGradient><linearGradient x1="19.127525%" y1="20.5791813%" x2="90.7415328%" y2="88.4290372%" id="linearGradient-2">
            <stop stop-color="#FFE052" offset="0%"/>
            <stop stop-color="#FFC331" offset="100%"/>
        </linearGradient><path d="M180.82764,252.605272 C184.843951,254.170159 189.42406,254.069552 193.478224,252.11917 L245.979142,226.856851 C251.495593,224.202221 255.003889,218.618034 255.003889,212.49296 L255.003889,41.1971845 C255.003889,35.0719113 251.495593,29.4886211 245.979142,26.8339907 L193.478224,1.57068551 C188.158006,-0.989256713 181.931329,-0.362230036 177.262566,3.0323459 C176.595173,3.51727166 175.959655,4.05869672 175.363982,4.65536598 L74.8565893,96.3498444 L31.0778002,63.1181557 C27.0024197,60.0246398 21.3020866,60.2780499 17.5170718,63.7211005 L3.47578059,76.4937075 C-1.15402423,80.7052561 -1.15933349,87.9889043 3.46431538,92.2072265 L41.430759,126.844525 L3.46431538,161.482221 C-1.15933349,165.700742 -1.15402423,172.984291 3.47578059,177.19584 L17.5170718,189.967949 C21.3020866,193.411497 27.0024197,193.664509 31.0778002,190.571591 L74.8565893,157.339404 L175.363982,249.034221 C176.953772,250.625007 178.82048,251.823326 180.82764,252.605272 Z M191.291764,68.9559518 L115.029663,126.844525 L191.291764,184.733396 L191.291764,68.9559518 Z" id="path-1"/><linearGradient x1="50.0000484%" y1="-3.91645412e-07%" x2="50.0000484%" y2="99.999921%" id="linearGradient-3">
            <stop stop-color="#FFFFFF" offset="0%"/>
            <stop stop-color="#FFFFFF" stop-opacity="0" offset="100%"/>
        </linearGradient><radialGradient id="radialGradient-1" cx="0.8366" cy="-125.811" r="363.0565" gradientTransform="matrix(0.463 0 0 0.463 76.4644 81.9182)" gradientUnits="userSpaceOnUse">
			<stop offset="0" style="stop-color:#FFFFFF"/>
			<stop offset="0.5" style="stop-color:#4C6B97"/>
			<stop offset="1" style="stop-color:#231F20"/>
		</radialGradient><linearGradient x1="84.7503645%" y1="111.399353%" x2="58.2543962%" y2="64.5837087%" id="gradient-2">
            <stop stop-color="#FB7655" offset="0%"/>
            <stop stop-color="#FB7655" offset="0%"/>
            <stop stop-color="#E42B1E" offset="41%"/>
            <stop stop-color="#990000" offset="99%"/>
            <stop stop-color="#990000" offset="100%"/>
        </linearGradient><linearGradient x1="116.651024%" y1="60.8903211%" x2="1.74616041%" y2="19.2879503%" id="gradient-3">
            <stop stop-color="#871101" offset="0%"/>
            <stop stop-color="#871101" offset="0%"/>
            <stop stop-color="#911209" offset="99%"/>
            <stop stop-color="#911209" offset="100%"/>
        </linearGradient><linearGradient x1="75.7744024%" y1="219.327131%" x2="38.9781357%" y2="7.82868176%" id="gradient-1">
            <stop stop-color="#871101" offset="0%"/>
            <stop stop-color="#871101" offset="0%"/>
            <stop stop-color="#911209" offset="99%"/>
            <stop stop-color="#911209" offset="100%"/>
        </linearGradient><linearGradient x1="50.012428%" y1="7.23449921%" x2="66.4830414%" y2="79.1354134%" id="linearGradient-4">
            <stop stop-color="#FFFFFF" offset="0%"/>
            <stop stop-color="#FFFFFF" offset="0%"/>
            <stop stop-color="#E57252" offset="23%"/>
            <stop stop-color="#DE3B20" offset="46%"/>
            <stop stop-color="#A60003" offset="99%"/>
            <stop stop-color="#A60003" offset="100%"/>
        </linearGradient><linearGradient x1="46.1741749%" y1="16.347907%" x2="49.9323342%" y2="83.0468449%" id="linearGradient-5">
            <stop stop-color="#FFFFFF" offset="0%"/>
            <stop stop-color="#FFFFFF" offset="0%"/>
            <stop stop-color="#E4714E" offset="23%"/>
            <stop stop-color="#BE1A0D" offset="56%"/>
            <stop stop-color="#A80D00" offset="99%"/>
            <stop stop-color="#A80D00" offset="100%"/>
        </linearGradient><linearGradient x1="36.9653573%" y1="15.5936471%" x2="49.5282324%" y2="92.4776332%" id="linearGradient-6">
            <stop stop-color="#FFFFFF" offset="0%"/>
            <stop stop-color="#FFFFFF" offset="0%"/>
            <stop stop-color="#E46342" offset="18%"/>
            <stop stop-color="#C82410" offset="40%"/>
            <stop stop-color="#A80D00" offset="99%"/>
            <stop stop-color="#A80D00" offset="100%"/>
        </linearGradient><linearGradient x1="13.6086166%" y1="58.3456855%" x2="85.7636612%" y2="-46.7167814%" id="linearGradient-7">
            <stop stop-color="#FFFFFF" offset="0%"/>
            <stop stop-color="#FFFFFF" offset="0%"/>
            <stop stop-color="#C81F11" offset="54%"/>
            <stop stop-color="#BF0905" offset="99%"/>
            <stop stop-color="#BF0905" offset="100%"/>
        </linearGradient><linearGradient x1="27.6242038%" y1="21.1345847%" x2="50.7445145%" y2="79.0557818%" id="linearGradient-8">
            <stop stop-color="#FFFFFF" offset="0%"/>
            <stop stop-color="#FFFFFF" offset="0%"/>
            <stop stop-color="#DE4024" offset="31%"/>
            <stop stop-color="#BF190B" offset="99%"/>
            <stop stop-color="#BF190B" offset="100%"/>
        </linearGradient><linearGradient x1="-20.6671297%" y1="122.281897%" x2="104.241521%" y2="-6.34211007%" id="linearGradient-9">
            <stop stop-color="#BD0012" offset="0%"/>
            <stop stop-color="#BD0012" offset="0%"/>
            <stop stop-color="#FFFFFF" offset="7%"/>
            <stop stop-color="#FFFFFF" offset="17%"/>
            <stop stop-color="#C82F1C" offset="27%"/>
            <stop stop-color="#820C01" offset="33%"/>
            <stop stop-color="#A31601" offset="46%"/>
            <stop stop-color="#B31301" offset="72%"/>
            <stop stop-color="#E82609" offset="99%"/>
            <stop stop-color="#E82609" offset="100%"/>
        </linearGradient><linearGradient x1="58.7919609%" y1="65.2049657%" x2="11.9636556%" y2="50.1275621%" id="linearGradient-10">
            <stop stop-color="#8C0C01" offset="0%"/>
            <stop stop-color="#8C0C01" offset="0%"/>
            <stop stop-color="#990C00" offset="54%"/>
            <stop stop-color="#A80D0E" offset="99%"/>
            <stop stop-color="#A80D0E" offset="100%"/>
        </linearGradient><linearGradient x1="79.3194899%" y1="62.7538068%" x2="23.088288%" y2="17.8876818%" id="linearGradient-11">
            <stop stop-color="#7E110B" offset="0%"/>
            <stop stop-color="#7E110B" offset="0%"/>
            <stop stop-color="#9E0C00" offset="99%"/>
            <stop stop-color="#9E0C00" offset="100%"/>
        </linearGradient><linearGradient x1="92.8800277%" y1="74.1223655%" x2="59.8414537%" y2="39.7039965%" id="linearGradient-12">
            <stop stop-color="#79130D" offset="0%"/>
            <stop stop-color="#79130D" offset="0%"/>
            <stop stop-color="#9E120B" offset="99%"/>
            <stop stop-color="#9E120B" offset="100%"/>
        </linearGradient><radialGradient cx="32.0008013%" cy="40.2100469%" fx="32.0008013%" fy="40.2100469%" r="69.5729556%" id="radialGradient-13">
            <stop stop-color="#A80D00" offset="0%"/>
            <stop stop-color="#A80D00" offset="0%"/>
            <stop stop-color="#7E0E08" offset="99%"/>
            <stop stop-color="#7E0E08" offset="100%"/>
        </radialGradient><radialGradient cx="13.5493795%" cy="40.859922%" fx="13.5493795%" fy="40.859922%" r="88.3861936%" id="radialGradient-14">
            <stop stop-color="#A30C00" offset="0%"/>
            <stop stop-color="#A30C00" offset="0%"/>
            <stop stop-color="#800E08" offset="99%"/>
            <stop stop-color="#800E08" offset="100%"/>
        </radialGradient><linearGradient x1="56.5701955%" y1="101.716594%" x2="3.10480737%" y2="11.9932603%" id="linearGradient-15">
            <stop stop-color="#8B2114" offset="0%"/>
            <stop stop-color="#8B2114" offset="0%"/>
            <stop stop-color="#9E100A" offset="43%"/>
            <stop stop-color="#B3100C" offset="99%"/>
            <stop stop-color="#B3100C" offset="100%"/>
        </linearGradient><linearGradient x1="30.8698732%" y1="35.5989756%" x2="92.4707626%" y2="100.693616%" id="linearGradient-16">
            <stop stop-color="#B31000" offset="0%"/>
            <stop stop-color="#B31000" offset="0%"/>
            <stop stop-color="#910F08" offset="44%"/>
            <stop stop-color="#791C12" offset="99%"/>
            <stop stop-color="#791C12" offset="100%"/>
        </linearGradient><linearGradient x1="12.9593594%" y1="12.0393928%" x2="79.6388325%" y2="78.2008538%" id="gradient-4">
            <stop stop-color="#387EB8" offset="0%"/>
            <stop stop-color="#366994" offset="100%"/>
        </linearGradient><linearGradient x1="19.127525%" y1="20.5791813%" x2="90.7415328%" y2="88.4290372%" id="gradient-5">
            <stop stop-color="#FFE052" offset="0%"/>
            <stop stop-color="#FFC331" offset="100%"/>
        </linearGradient><linearGradient x1="12.9593594%" y1="12.0393928%" x2="79.6388325%" y2="78.2008538%" id="gradient-6">
            <stop stop-color="#387EB8" offset="0%"/>
            <stop stop-color="#366994" offset="100%"/>
        </linearGradient><linearGradient x1="19.127525%" y1="20.5791813%" x2="90.7415328%" y2="88.4290372%" id="gradient-7">
            <stop stop-color="#FFE052" offset="0%"/>
            <stop stop-color="#FFC331" offset="100%"/>
        </linearGradient></defs><g transform="matrix(0.7812497615814209, 0, 0, 0.7812497615814209, -2.2737367544323206e-13, 0.39065539836883545)"><g>
        <path d="M126.915866,0.0722755491 C62.0835831,0.0722801733 66.1321288,28.1874648 66.1321288,28.1874648 L66.2044043,57.3145115 L128.072276,57.3145115 L128.072276,66.0598532 L41.6307171,66.0598532 C41.6307171,66.0598532 0.144551098,61.3549438 0.144551098,126.771315 C0.144546474,192.187673 36.3546019,189.867871 36.3546019,189.867871 L57.9649915,189.867871 L57.9649915,159.51214 C57.9649915,159.51214 56.8001363,123.302089 93.5968379,123.302089 L154.95878,123.302089 C154.95878,123.302089 189.434218,123.859386 189.434218,89.9830604 L189.434218,33.9695088 C189.434218,33.9695041 194.668541,0.0722755491 126.915866,0.0722755491 L126.915866,0.0722755491 L126.915866,0.0722755491 Z M92.8018069,19.6589497 C98.9572068,19.6589452 103.932242,24.6339846 103.932242,30.7893845 C103.932246,36.9447844 98.9572068,41.9198193 92.8018069,41.9198193 C86.646407,41.9198239 81.6713721,36.9447844 81.6713721,30.7893845 C81.6713674,24.6339846 86.646407,19.6589497 92.8018069,19.6589497 L92.8018069,19.6589497 L92.8018069,19.6589497 Z" fill="url(#linearGradient-1)"/>
        <path d="M128.757101,254.126271 C193.589403,254.126271 189.540839,226.011081 189.540839,226.011081 L189.468564,196.884035 L127.600692,196.884035 L127.600692,188.138693 L214.042251,188.138693 C214.042251,188.138693 255.528417,192.843589 255.528417,127.427208 C255.52844,62.0108566 219.318366,64.3306589 219.318366,64.3306589 L197.707976,64.3306589 L197.707976,94.6863832 C197.707976,94.6863832 198.87285,130.896434 162.07613,130.896434 L100.714182,130.896434 C100.714182,130.896434 66.238745,130.339138 66.238745,164.215486 L66.238745,220.229038 C66.238745,220.229038 61.0044225,254.126271 128.757101,254.126271 L128.757101,254.126271 L128.757101,254.126271 Z M162.87116,234.539597 C156.715759,234.539597 151.740726,229.564564 151.740726,223.409162 C151.740726,217.253759 156.715759,212.278727 162.87116,212.278727 C169.026563,212.278727 174.001595,217.253759 174.001595,223.409162 C174.001618,229.564564 169.026563,234.539597 162.87116,234.539597 L162.87116,234.539597 L162.87116,234.539597 Z" fill="url(#linearGradient-2)"/>
    </g></g></svg>